<svg width="157" height="98" viewBox="0 0 157 98" fill="none" xmlns="http://www.w3.org/2000/svg">
<path d="M37.1875 31.1562C37.1875 41.6875 30.5625 47.5938 22.5938 47.5938C18.3125 47.5938 14.9062 45.6562 13.5938 42.9688L9.90625 47H4.15625V6.90625C4.15625 4.875 3.9375 4.4375 2.1875 3.84375L0.5625 3.3125V1.875L14.4688 0.21875V21.2812C15.9688 17.625 19.7812 15.3438 24.5312 15.3438C31.5312 15.3438 37.1875 21.0938 37.1875 31.1562ZM26.5938 32.125C26.5938 24.125 23.6875 19.625 19.5625 19.625C17.1875 19.625 15.4062 20.7812 14.4688 22.5938V41.8125C15.1562 43.3438 17.0312 44.5938 19.25 44.5938C23.625 44.5938 26.5938 40.0938 26.5938 32.125ZM58.8438 47.625C48.875 47.625 41.4062 41.4062 41.4062 31.5938C41.4062 22 48.9375 15.3438 58.9688 15.3438C68.9688 15.3438 76.4375 21.5625 76.4375 31.3438C76.4375 40.9375 68.9062 47.625 58.8438 47.625ZM59.0625 45.5625C63.2812 45.5625 65.5312 40.3125 65.5312 31.6875C65.5312 22.75 62.9375 17.4062 58.7812 17.4062C54.5312 17.4062 52.2812 22.625 52.2812 31.25C52.2812 40.1875 54.875 45.5625 59.0625 45.5625ZM98.0938 47.625C88.125 47.625 80.6562 41.4062 80.6562 31.5938C80.6562 22 88.1875 15.3438 98.2188 15.3438C108.219 15.3438 115.688 21.5625 115.688 31.3438C115.688 40.9375 108.156 47.625 98.0938 47.625ZM98.3125 45.5625C102.531 45.5625 104.781 40.3125 104.781 31.6875C104.781 22.75 102.188 17.4062 98.0312 17.4062C93.7812 17.4062 91.5312 22.625 91.5312 31.25C91.5312 40.1875 94.125 45.5625 98.3125 45.5625ZM143.812 47L135.625 32.0312L133 32V42.2188C133 44.4062 133.406 44.9688 136.125 45.4688V47H119.125V45.4688C122.156 44.9375 122.719 44.2812 122.719 42.0312V6.90625C122.719 4.875 122.469 4.4375 120.719 3.84375L119.125 3.3125V1.875L133 0.1875V30.1562L135.562 30.0938L142.719 22.5625C145.5 19.75 145.344 18.1875 141.594 17.5V15.9375H154.688V17.5C151.219 18.2812 149.156 19.4375 144.75 23.1875L143.031 24.75L150.312 38.0625C153.312 43.75 154.656 44.9375 156.469 45.5312V47H143.812ZM15.3125 50.1875V92.0312C15.3125 94.2812 15.875 94.9375 18.9062 95.4688V97H1.4375V95.4688C4.46875 94.9375 5.03125 94.2812 5.03125 92.0312V56.9062C5.03125 54.875 4.78125 54.4375 3.03125 53.8438L1.4375 53.3125V51.875L15.3125 50.1875ZM39.5938 97.625C29.625 97.625 22.1562 91.4062 22.1562 81.5938C22.1562 72 29.6875 65.3438 39.7188 65.3438C49.7188 65.3438 57.1875 71.5625 57.1875 81.3438C57.1875 90.9375 49.6562 97.625 39.5938 97.625ZM39.8125 95.5625C44.0312 95.5625 46.2812 90.3125 46.2812 81.6875C46.2812 72.75 43.6875 67.4062 39.5312 67.4062C35.2812 67.4062 33.0312 72.625 33.0312 81.25C33.0312 90.1875 35.625 95.5625 39.8125 95.5625ZM62.1875 72.625C60.75 68.9062 59.9062 68.0312 57.4375 67.5V65.9375H76.2188V67.5C72.5938 67.9688 72.1875 69 73.625 73.5938L78.5312 88.75L83.5 73.6562C85 69 84.5625 68 81.0312 67.5V65.9375H91.4688V67.5C88.9688 68 88.125 68.875 86.1875 73.9062L77.3438 97H71.4062L62.1875 72.625ZM91.0938 81.5312C91.0938 72.0312 97.5625 65.3438 107.312 65.3438C115.969 65.3438 121.156 70.6875 121.156 78.4375C121.156 79.25 121.062 80.0625 121 80.5938H101.5C102.344 88.7188 106.969 93.3125 113.312 93.3125C116.375 93.3125 119 92.1562 120.562 90.5625L120.594 92.0938C118.312 95.5312 113.562 97.625 107.75 97.625C98.4375 97.625 91.0938 91.4688 91.0938 81.5312ZM101.375 77.9062C101.375 78.2188 101.375 78.5 101.406 78.8125L112.094 78.6875C112.125 78.0938 112.125 77.4375 112.125 76.5312C112.125 70.9688 110.625 67.4062 107.312 67.4062C103.531 67.4062 101.375 71.1875 101.375 77.9062ZM130.469 97.5938C127.438 97.5938 124.938 95.0938 124.938 92.0625C124.938 89.0312 127.406 86.5625 130.469 86.5625C133.531 86.5625 136 89.0312 136 92.0625C136 95.0938 133.531 97.5938 130.469 97.5938Z" fill="black"/>
</svg>
